<?xml version="1.0" encoding="UTF-8"?>
<svg id="Blue_Light" xmlns="http://www.w3.org/2000/svg" viewBox="0 0 32 32">
  <defs>
    <style>
      .cls-1 {
        fill: #0069b3;
      }

      .cls-2 {
        fill: none;
        stroke: #0069b3;
        stroke-miterlimit: 10;
        stroke-width: .5px;
      }
    </style>
  </defs>
  <!-- White background -->
  <rect width="32" height="32" fill="white"/>

  <path class="cls-1" d="M22.548,21.117c1.157-.411,2.207-1.701,3.561-1.029,0,0-.295.042-.295.042l.602-.595-.074.163.031-.543.003-.045c.383-.789.617-1.79.674-2.706.054-3.445-.514-8.138-4.188-9.501-2.632-1.063-5.623.117-7.451,2.143,0,0,.059-.147.059-.147l-.251,4.291c-1.231,3.18-3.158,2.1-4.161-.483,0,0,.443.048.443.048-.802,1.894.59,4.168.513,6.273-.058,1.148-.526,2.523-1.753,2.879-.467.1-.924-.146-1.197-.433l.146.071c.094.037.237-.085.238-.142.269,1.944,1.244,3.76,2.292,5.399.936,1.613,3.094,3.444,4.157,4.206.879-.025,2.143-.054,2.578-.906,2.04-2.113,4.879-4.264,5.932-7.057.102-.523.257-1.064.524-1.525.254-.479.539-.924.858-1.362l.4.3c-.588.846-1.154,1.684-1.302,2.727-1.107,2.962-3.938,5.076-6.067,7.279,0,0,.071-.125.071-.125-.144.397-.39.543-.637.702-.745.411-1.612.459-2.429.468-3.436-2.197-5.97-5.832-6.854-9.808-.058-.297-.042-.729.387-.641.476.575,1.126.405,1.525-.162,1.28-1.801.24-4.115-.096-6.098-.134-.954-.06-1.936.556-2.742.352.969,1.498,3.608,2.708,2.174.286-.326.519-.74.685-1.146,0,0-.016.074-.016.074l.251-4.291.005-.089.054-.058c2.53-3.008,7.748-3.887,10.416-.597,2.214,3.036,2.748,8.015,1.427,11.058.011.069-.045.585-.037.639,0,0-.068.068-.068.068-.117.104-.637.637-.734.725-.527-.341-1.166-.419-1.761-.13-.583.209-1.099.592-1.725.685,0,0,0-.053,0-.053h0Z"/>
  <path class="cls-1" d="M14.427,20.28c1.483-.403,3.278-.809,4.492.379.419.213,1.045.352,1.223.904,0,0-.065.023-.065.023-.277-.655-1.328-.644-1.887-1.191-1.137-.508-2.487-.034-3.599.357,0,0-.165-.472-.165-.472h0Z"/>
  <path class="cls-1" d="M19.355,22.162c-.444,1.659-2.573,1.116-3.448.14,0,0,.366-.341.366-.341.669.875,2.42,1.51,2.891.14,0,0,.19.06.19.06h0Z"/>
  <path class="cls-1" d="M22.474,22.962c.546.01,1.327.129,1.669-.378.103-.164.133-.377.01-.485l.078-.129c.261.171.22.511.127.717-.318.7-1.25.709-1.903.775,0,0,.02-.5.02-.5h0Z"/>
  <path class="cls-2" d="M16.451,29.105s.565.575,1.212.648c.726.082,1.137.13,1.505-.005"/>
  <path class="cls-2" d="M18.48,25.949s-.613.014-.683.376.258.515.585.557"/>
  <path class="cls-2" d="M18.716,26.785s.202.631.675.576,1.122-.046,1.303-.576-.014-2.563,0-2.814.014-1.101.293-1.63"/>
  <path class="cls-2" d="M19.513,27.348s.423.107.698.076c.282-.031.512-.141.47-.601"/>
  <path class="cls-2" d="M19.513,29.491s-1.041-.299-1.697-.297"/>
  <path class="cls-2" d="M9.216,21.254l.448-.15s.647.309,1.129.201"/>
  <ellipse class="cls-2" cx="5.325" cy="17.214" rx=".886" ry="2.442"/>
  <ellipse class="cls-2" cx="9.457" cy="17.696" rx=".886" ry="2.442"/>
  <line class="cls-2" x1="5.325" y1="14.772" x2="9.443" y2="15.255"/>
  <line class="cls-2" x1="5.325" y1="19.656" x2="9.457" y2="20.138"/>
  <path class="cls-2" d="M22.382,5.271c.183.004.291-.202.185-.351-.763-1.073-2.979-3.471-4.6-4.246-1.947-.932-7.642.374-10.361,5.047-.06.102-.027.234.072.298.594.386,1.207.771,1.47.934.079.05.181.044.255-.014l1.2-.937c.01-.007.019-.014.03-.02.145-.08,1.179-.585,2.288.584.604.637.768,1.303.782,1.806.006.223.278.326.427.16.702-.788,2.048-2.059,3.824-2.613,1.95-.609,3.652-.663,4.427-.648Z"/>
  <path class="cls-2" d="M6.548,7.917l2.569,1.867s.827-2.023,1.628-1.867c.489.095.936.568,1.498,1.056.318.276,1.338.466,1.487,1.147s.34,3.17-.319,3.319-1.511-1.702-2-2.553-1.66,1.957-1.66,1.957l-4.109.234s-.689-4.096.906-5.16Z"/>
</svg>